# xmcd
#
# Track frame offsets: 
#        150
#        30027
#        45929
#        69192
#        100754
#        119103
#        134394
#        144834
#        165134
#        197102
#
# Disc length: 3031 seconds
#
# Revision: 2
# Processed by: cddbd v1.5.2PL0 Copyright (c) Steve Scherf et al.
# Submitted via: ExactAudioCopy v1.0b2
#
DISCID=740bd50a
DTITLE=Andrew Cyrille, Mark Dresser, Marty Ehrlich - C-D-E
DYEAR=1998
DGENRE=Avantgarde
TTITLE0=View From The Point
TTITLE1=Aeolus
TTITLE2=BBJC
TTITLE3=A Simple Melody
TTITLE4=For Bradford
TTITLE5=Aubade
TTITLE6=C_D_E
TTITLE7=Point Of View
TTITLE8=AM 2 1_2
TTITLE9=2 For Cyrille
EXTD=YEAR: 1998
EXTT0=
EXTT1=
EXTT2=
EXTT3=
EXTT4=
EXTT5=
EXTT6=
EXTT7=
EXTT8=
EXTT9=
PLAYORDER=
